<mxfile host="app.diagrams.net" modified="2023-11-05T14:52:48.863Z" agent="Mozilla/5.0 (X11; Ubuntu; Linux x86_64; rv:109.0) Gecko/20100101 Firefox/119.0" version="22.0.8" etag="aA5cTA-1FMOAfxZeOSWK" type="github">
  <diagram name="Page-1" id="tcNlGiSoPxWkHCK1hjD1">
    <mxGraphModel>
      <root>
        <mxCell id="0" />
        <mxCell id="1" parent="0" />
      </root>
    </mxGraphModel>
  </diagram>
</mxfile>
